<svg xmlns="http://www.w3.org/2000/svg" width="113.13708498984761" height="113.13708498984761" style="transform: rotate(45deg);"><rect x="16.568542494923804" y="16.568542494923804" width="10" height="10" fill="#efb107"></rect><rect x="26.568542494923804" y="16.568542494923804" width="10" height="10" fill="#efb107"></rect><rect x="36.568542494923804" y="16.568542494923804" width="10" height="10" fill="#efb107"></rect><rect x="86.5685424949238" y="16.568542494923804" width="10" height="10" fill="#efb106"></rect><rect x="16.568542494923804" y="26.568542494923804" width="10" height="10" fill="#efb107"></rect><rect x="26.568542494923804" y="26.568542494923804" width="10" height="10" fill="#d059e8"></rect><rect x="36.568542494923804" y="26.568542494923804" width="10" height="10" fill="#d059e8"></rect><rect x="46.568542494923804" y="26.568542494923804" width="10" height="10" fill="#d059e8"></rect><rect x="56.568542494923804" y="26.568542494923804" width="10" height="10" fill="#d059e8"></rect><rect x="66.5685424949238" y="26.568542494923804" width="10" height="10" fill="#d059e8"></rect><rect x="76.5685424949238" y="26.568542494923804" width="10" height="10" fill="#d059e8"></rect><rect x="86.5685424949238" y="26.568542494923804" width="10" height="10" fill="#efb107"></rect><rect x="16.568542494923804" y="36.568542494923804" width="10" height="10" fill="#efb107"></rect><rect x="26.568542494923804" y="36.568542494923804" width="10" height="10" fill="#d059e8"></rect><rect x="36.568542494923804" y="36.568542494923804" width="10" height="10" fill="#efb107"></rect><rect x="46.568542494923804" y="36.568542494923804" width="10" height="10" fill="#43d4d1"></rect><rect x="56.568542494923804" y="36.568542494923804" width="10" height="10" fill="#43d4d1"></rect><rect x="66.5685424949238" y="36.568542494923804" width="10" height="10" fill="#43d4d1"></rect><rect x="76.5685424949238" y="36.568542494923804" width="10" height="10" fill="#43d4d1"></rect><rect x="86.5685424949238" y="36.568542494923804" width="10" height="10" fill="#efb107"></rect><rect x="26.568542494923804" y="46.568542494923804" width="10" height="10" fill="#d059e8"></rect><rect x="36.568542494923804" y="46.568542494923804" width="10" height="10" fill="#43d4d1"></rect><rect x="46.568542494923804" y="46.568542494923804" width="10" height="10" fill="#efb107"></rect><rect x="56.568542494923804" y="46.568542494923804" width="10" height="10" fill="#43d4d1"></rect><rect x="66.5685424949238" y="46.568542494923804" width="10" height="10" fill="#43d4d1"></rect><rect x="76.5685424949238" y="46.568542494923804" width="10" height="10" fill="#43d4d1"></rect><rect x="86.5685424949238" y="46.568542494923804" width="10" height="10" fill="#efb107"></rect><rect x="26.568542494923804" y="56.568542494923804" width="10" height="10" fill="#d059e8"></rect><rect x="36.568542494923804" y="56.568542494923804" width="10" height="10" fill="#43d4d1"></rect><rect x="46.568542494923804" y="56.568542494923804" width="10" height="10" fill="#43d4d1"></rect><rect x="56.568542494923804" y="56.568542494923804" width="10" height="10" fill="#efb107"></rect><rect x="86.5685424949238" y="56.568542494923804" width="10" height="10" fill="#efb107"></rect><rect x="26.568542494923804" y="66.5685424949238" width="10" height="10" fill="#d059e8"></rect><rect x="36.568542494923804" y="66.5685424949238" width="10" height="10" fill="#43d4d1"></rect><rect x="46.568542494923804" y="66.5685424949238" width="10" height="10" fill="#43d4d1"></rect><rect x="66.5685424949238" y="66.5685424949238" width="10" height="10" fill="#efb107"></rect><rect x="76.5685424949238" y="66.5685424949238" width="10" height="10" fill="#efb107"></rect><rect x="86.5685424949238" y="66.5685424949238" width="10" height="10" fill="#efb107"></rect><rect x="26.568542494923804" y="76.5685424949238" width="10" height="10" fill="#d059e8"></rect><rect x="36.568542494923804" y="76.5685424949238" width="10" height="10" fill="#43d4d1"></rect><rect x="46.568542494923804" y="76.5685424949238" width="10" height="10" fill="#43d4d1"></rect><rect x="66.5685424949238" y="76.5685424949238" width="10" height="10" fill="#efb107"></rect><rect x="86.5685424949238" y="76.5685424949238" width="10" height="10" fill="#efb107"></rect><rect x="16.568542494923804" y="86.5685424949238" width="10" height="10" fill="#efb106"></rect><rect x="26.568542494923804" y="86.5685424949238" width="10" height="10" fill="#efb107"></rect><rect x="36.568542494923804" y="86.5685424949238" width="10" height="10" fill="#efb107"></rect><rect x="46.568542494923804" y="86.5685424949238" width="10" height="10" fill="#efb107"></rect><rect x="56.568542494923804" y="86.5685424949238" width="10" height="10" fill="#efb107"></rect><rect x="66.5685424949238" y="86.5685424949238" width="10" height="10" fill="#efb107"></rect><rect x="76.5685424949238" y="86.5685424949238" width="10" height="10" fill="#efb107"></rect><rect x="86.5685424949238" y="86.5685424949238" width="10" height="10" fill="#efb107"></rect></svg>